<mxfile>
    <diagram id="TeMW5D16ACtBFCZv59oW" name="Page-1">
        <mxGraphModel dx="728" dy="680" grid="1" gridSize="10" guides="1" tooltips="1" connect="1" arrows="1" fold="1" page="1" pageScale="1" pageWidth="827" pageHeight="1169" math="0" shadow="0">
            <root>
                <mxCell id="0"/>
                <mxCell id="1" parent="0"/>
                <mxCell id="2" value="Start" style="rounded=1;whiteSpace=wrap;html=1;sketch=0;" vertex="1" parent="1">
                    <mxGeometry x="260" y="30" width="120" height="60" as="geometry"/>
                </mxCell>
                <mxCell id="5" value="" style="endArrow=classic;html=1;exitX=0.45;exitY=1.033;exitDx=0;exitDy=0;exitPerimeter=0;" edge="1" parent="1" source="2">
                    <mxGeometry width="50" height="50" relative="1" as="geometry">
                        <mxPoint x="295" y="170" as="sourcePoint"/>
                        <mxPoint x="314" y="140" as="targetPoint"/>
                    </mxGeometry>
                </mxCell>
                <mxCell id="6" value="Height &amp;gt; 120 cm&amp;nbsp;" style="rhombus;whiteSpace=wrap;html=1;rounded=0;sketch=0;" vertex="1" parent="1">
                    <mxGeometry x="240" y="140" width="150" height="90" as="geometry"/>
                </mxCell>
                <mxCell id="7" value="" style="endArrow=classic;html=1;exitX=0;exitY=0.5;exitDx=0;exitDy=0;rounded=0;" edge="1" parent="1" source="6">
                    <mxGeometry width="50" height="50" relative="1" as="geometry">
                        <mxPoint x="150" y="180" as="sourcePoint"/>
                        <mxPoint x="170" y="250" as="targetPoint"/>
                        <Array as="points">
                            <mxPoint x="170" y="185"/>
                            <mxPoint x="170" y="200"/>
                        </Array>
                    </mxGeometry>
                </mxCell>
                <mxCell id="8" value="" style="endArrow=classic;html=1;exitX=1;exitY=0.5;exitDx=0;exitDy=0;rounded=0;" edge="1" parent="1" source="6">
                    <mxGeometry width="50" height="50" relative="1" as="geometry">
                        <mxPoint x="540" y="200" as="sourcePoint"/>
                        <mxPoint x="480" y="250" as="targetPoint"/>
                        <Array as="points">
                            <mxPoint x="480" y="185"/>
                            <mxPoint x="480" y="210"/>
                        </Array>
                    </mxGeometry>
                </mxCell>
                <mxCell id="9" value="can ride" style="rounded=1;whiteSpace=wrap;html=1;sketch=0;" vertex="1" parent="1">
                    <mxGeometry x="414" y="250" width="120" height="60" as="geometry"/>
                </mxCell>
                <mxCell id="10" value="Can't ride" style="rounded=1;whiteSpace=wrap;html=1;sketch=0;" vertex="1" parent="1">
                    <mxGeometry x="110" y="250" width="120" height="60" as="geometry"/>
                </mxCell>
                <mxCell id="11" value="no" style="text;html=1;strokeColor=none;fillColor=none;align=center;verticalAlign=middle;whiteSpace=wrap;rounded=0;sketch=0;" vertex="1" parent="1">
                    <mxGeometry x="190" y="160" width="40" height="20" as="geometry"/>
                </mxCell>
                <mxCell id="12" value="yes" style="text;html=1;strokeColor=none;fillColor=none;align=center;verticalAlign=middle;whiteSpace=wrap;rounded=0;sketch=0;" vertex="1" parent="1">
                    <mxGeometry x="420" y="160" width="40" height="20" as="geometry"/>
                </mxCell>
            </root>
        </mxGraphModel>
    </diagram>
</mxfile>